PathFileType	4	(X/Y/Z)	Patient4_TMGait_0pt6_01_left_46.trc.trc
DataRate	CameraRate	NumFrames	NumMarkers	Units	OrigDataRate	OrigDataStartFrame	OrigNumFrames
83.832335329341	83.832335329341	5	33	mm	83.832335329341	89	       141
Frame#	Time	Sacral			L.Shoulder			Chest			R.Shoulder			Neck			R.ASIS			L.ASIS			R.Thigh.Superior			R.Thigh.Lateral			R.Thigh.Inferior			R.Patella			L.Thigh.Superior			L.Thigh.Lateral			L.Thigh.Inferior			L.Patella			L.Shank.Superior			L.Shank.Lateral			L.Shank.Inferior			R.Shank.Superior			R.Shank.Lateral			R.Shank.Inferior			R.Heel			R.Midfoot.Superior			R.Midfoot.Lateral			R.Toe			L.Heel			L.Midfoot.Lateral			L.Midfoot.Superior			L.Toe			L.Elbow			L.Wrist			R.Elbow			R.Wrist			
		X1	Y1	Z1	X2	Y2	Z2	X3	Y3	Z3	X4	Y4	Z4	X5	Y5	Z5	X6	Y6	Z6	X7	Y7	Z7	X8	Y8	Z8	X9	Y9	Z9	X10	Y10	Z10	X11	Y11	Z11	X12	Y12	Z12	X13	Y13	Z13	X14	Y14	Z14	X15	Y15	Z15	X16	Y16	Z16	X17	Y17	Z17	X18	Y18	Z18	X19	Y19	Z19	X20	Y20	Z20	X21	Y21	Z21	X22	Y22	Z22	X23	Y23	Z23	X24	Y24	Z24	X25	Y25	Z25	X26	Y26	Z26	X27	Y27	Z27	X28	Y28	Z28	X29	Y29	Z29	X30	Y30	Z30	X31	Y31	Z31	X32	Y32	Z32	X33	Y33	Z33	

89	57.049714285714	807.871566679608	1000.865783692735	460.543011528251	966.880827703546	1435.369731540301	288.619839086339	1071.438224129228	1369.123430912943	449.359712452557	982.877418817804	1435.003026528594	622.529309715931	943.427947905840	1492.880500785023	442.427079742389	1036.088147389510	942.922237284736	580.256329349455	1025.246919567037	961.653027295208	305.531137370067	1090.946147807447	746.340280327326	549.997409301884	1015.603266289856	632.585594398643	606.235151769305	1097.952014548542	586.302666366937	527.114952838791	1103.834107919616	497.584957721224	532.127161405203	1072.972346722881	744.322675955506	330.507059612023	993.670034585774	627.129288510007	262.058438081204	1082.978491673473	545.110149048454	320.413605328247	1076.389934694481	457.608317602400	316.732002829091	1004.982493037725	399.867933082129	311.320087735696	862.540991948901	363.645468940665	262.716999494798	841.469485527797	237.335470304386	320.779871939933	1079.299180147797	407.795999127220	538.495096567087	1010.386778618659	299.410916758906	593.555960653572	1061.278143236667	208.249691848443	532.580211049751	938.305949663895	40.962578782234	489.148560156490	1104.508620409465	97.327120480239	540.023290751489	1014.441638777387	36.630724950157	572.277862011057	1222.316948089281	47.136585874691	579.606987747074	646.902513209697	184.070449773300	356.915031193975	703.555940274136	131.126823819942	281.301719288591	807.617281791089	134.979314356045	304.844197919997	880.641395552716	30.525950027042	286.939193076216	989.073564010199	1080.947955604282	172.842236949367	1195.793806029174	922.642258961896	187.809890123834	939.937543465363	1082.330643979892	726.142756565600	1025.545813707270	835.749353743864	726.154987259906	
90	57.061642857143	807.211948481128	1001.412110612503	463.822277712885	964.821787024484	1435.600926559479	290.326508405841	1070.971064100636	1369.446235688203	450.131680190028	984.217544309020	1435.421401322515	624.200184707287	943.272760942793	1493.308721875415	444.559206925186	1035.908217147590	943.483943698627	581.606564937094	1023.461965643154	962.097723682904	307.062164479081	1088.235425071005	745.616046340034	552.314567959377	1011.378900549462	632.678638786987	608.244305798312	1093.152887387140	585.603218658890	529.135910652825	1097.748267296457	497.074331929902	533.862117325557	1076.493360547778	747.880534711851	331.887751490617	1001.570554786584	628.982326865187	262.514934302399	1093.549377459724	549.127453856933	320.566198700526	1088.726162905263	460.704963566010	316.380817590165	1016.227962963751	402.696259964044	311.096353874028	872.543771057870	370.188878969936	263.098183425165	848.852139806599	244.103544398203	320.737266607684	1073.126626680961	407.506465904950	540.001094973733	1003.881654161826	299.183382106147	594.595634136626	1054.614830979219	208.070655580071	533.312076051486	931.174918088244	41.007188926118	489.318278582661	1097.501689697212	97.163917052597	540.348059625917	1007.288626674251	36.560628320010	572.441886863809	1215.280209712089	46.543996240849	579.836646912377	652.985663739346	198.120799566047	357.289720038109	707.331768945552	142.541405721034	281.529961091527	811.928015694065	141.632444831903	304.913399942418	879.802235219856	30.927333672770	286.755902845489	984.392607638870	1080.071467700841	176.528301628043	1180.151296922079	907.633620394666	188.494464355184	949.695153491081	1081.912365141489	729.723159462212	1047.730455145146	839.927338533675	727.332066818698	
91	57.073571428571	806.486347912810	1001.943713238245	466.930725195325	962.726129564267	1435.768386235946	291.894494503438	1070.451598050764	1369.686239582249	450.757531788668	985.521345602533	1435.743913442280	625.736996083001	943.113833722360	1493.682022498907	446.583399501734	1035.534734329807	943.927842486995	582.932418876379	1021.493409496307	962.359280826169	308.594786432475	1085.394406801078	744.919381995162	554.566066884144	1007.069142655660	632.797329715782	610.234543500894	1088.250752077659	584.929714587136	531.168022796419	1091.592626036332	496.626287255638	535.669065742706	1079.650832238534	751.601387970162	333.190107428665	1008.881674929083	631.270628680954	262.879832217771	1103.344655705276	553.621214018256	320.583529551008	1100.427228431052	464.400547564505	315.920973373311	1027.171850309908	405.954811645140	310.789594503180	882.528064953117	376.346822697401	263.385257287545	856.887210689238	250.451537973127	320.746197683652	1066.907207826807	407.251701349146	541.513907676040	997.302012023139	298.987442511859	595.631509377664	1047.937909235633	207.914413425160	534.090142940593	924.018266670527	41.081165471996	489.497985511277	1090.498711673073	96.993580045501	540.679808013251	1000.118215888010	36.501942770327	572.606373636261	1208.230226325309	45.905531459438	580.057864000409	660.215492573235	210.059633146751	357.818944141175	712.677718149547	152.613095546091	281.824465756815	817.604519954298	148.048429415541	304.996193137528	881.385477631825	32.021411157608	286.393336681255	979.724569211047	1079.169610316528	180.024658797724	1163.235283171031	893.346344475361	189.146592056471	959.490646541519	1081.667704199597	733.096866058772	1069.934840880104	845.042060735028	728.292510892128	
92	57.085500000000	805.699835530978	1002.501343132185	469.848616785286	960.656919486490	1435.930654720958	293.333613162333	1069.893432317056	1369.890127208345	451.269946630645	986.772098070319	1436.045308817040	627.136742768592	942.943327627920	1494.054148973979	448.471143358164	1034.980598724168	944.307249803446	584.262020347448	1019.372972402422	962.511334130096	310.146700452965	1082.440753599999	744.281582721550	556.721183147596	1002.658456369350	632.971107624662	612.168741757930	1083.234338483586	584.297744855806	533.177040380142	1085.358959040974	496.260842893173	537.497742015555	1082.410676156834	755.479945637399	334.437004492282	1015.535131874319	633.964738445348	263.175173296485	1112.311796186802	558.540460907193	320.444159964176	1111.415799004925	468.651031989689	315.306920831661	1037.754921166221	409.580949972452	310.374521079473	892.415927930818	381.921999425419	263.568431842605	865.617354434986	256.128133303152	320.772208593525	1060.625226389563	407.056697509482	542.998065496943	990.630265941483	298.854262055034	596.639177427370	1041.233720734541	207.803721523945	534.904136877000	916.835636190845	41.187873550967	489.691075769957	1083.496012044276	96.840646568236	541.022441308937	992.936367024884	36.460037804292	572.770729711494	1201.162392113701	45.270494973669	580.266798688452	668.572723543423	219.366236905556	358.490181742396	719.671351988447	160.859478594351	282.164138479475	824.792739675495	153.892495708497	305.040296687009	885.758709034578	33.769182500119	285.806070604777	975.004139461206	1078.318166579081	183.332951993959	1145.130073689117	880.042423420661	189.785107104558	969.321141606144	1081.656339508379	736.205139638639	1092.037127815321	851.160825184776	728.981823459060	
93	57.097428571429	804.851153524209	1003.121627620981	472.565067068906	958.666680579984	1436.138207601950	294.659029048508	1069.307891718506	1370.101826282785	451.703693441878	987.951902620841	1436.392455971008	628.401825433287	942.750857402092	1494.470229483352	450.200254900341	1034.269651109119	944.672719999912	585.607429590155	1017.145702933005	962.637019747727	311.716318007324	1079.377467175299	743.718253367151	558.755830522371	998.119813717221	633.218656838131	614.008315792924	1078.082326211559	583.717166451331	535.128792198386	1079.027997676611	495.989437602106	539.298859901771	1084.752256516467	759.500648301997	335.641777826684	1021.490192257477	637.012601099118	263.415419680547	1120.426477892404	563.813106326832	320.131712497004	1121.639367354819	473.393240577907	314.512305748744	1047.944213540248	413.493882701983	309.834829778994	902.161325865451	386.726610777332	263.641798902595	875.095726428276	260.903657873413	320.778193975987	1054.253178704292	406.940180272014	544.421277532382	983.842462828687	298.806284217948	597.596400385491	1034.483459559350	207.756551471306	535.739454814373	909.625961523388	41.326654388874	489.897248796337	1076.488871851008	96.722991525688	541.377238792460	985.746625056377	36.436856137579	572.932682349560	1194.071614031432	44.679871222068	580.460474236669	678.063491575587	225.667840949296	359.278171851276	728.366749495418	166.904080243974	282.517748485120	833.609804543046	158.846823218689	304.992525795906	893.165106570484	36.020136664780	284.945520447731	970.151956022883	1077.590776131932	186.450308697471	1125.970359933294	867.960550625804	190.426052152412	979.170445674559	1081.934653460522	739.008315813728	1113.926431455796	858.343031378022	729.351761033172	
